<svg width="20" height="20" viewBox="0 0 20 20" fill="none" xmlns="http://www.w3.org/2000/svg">
<path d="M13.9285 20H3.17695C2.3788 20 1.72998 19.3506 1.72998 18.553V4.55158C1.72998 3.75401 2.3788 3.10461 3.17695 3.10461H4.5452C4.70495 3.10461 4.8346 3.23426 4.8346 3.39401C4.8346 3.55375 4.70495 3.6834 4.5452 3.6834H3.17695C2.69829 3.6834 2.30877 4.07293 2.30877 4.55158V18.5525C2.30877 19.0311 2.69829 19.4206 3.17695 19.4206H13.9285C14.4072 19.4206 14.7967 19.0311 14.7967 18.5525V17.1836C14.7967 17.0239 14.9263 16.8942 15.0861 16.8942C15.2458 16.8942 15.3755 17.0239 15.3755 17.1836V18.5525C15.3755 19.3506 14.7267 20 13.9285 20Z" fill="#454545"/>
<path d="M16.8224 16.8948H6.07087C5.27272 16.8948 4.6239 16.2454 4.6239 15.4478V1.44697C4.6239 0.6494 5.27272 0 6.07087 0H13.9447C14.1044 0 14.2341 0.129648 14.2341 0.289394C14.2341 0.449139 14.105 0.578787 13.9453 0.578787H6.07087C5.59221 0.578787 5.20269 0.968311 5.20269 1.44697V15.4478C5.20269 15.9265 5.59221 16.316 6.07087 16.316H16.8224C17.3011 16.316 17.6906 15.9265 17.6906 15.4478V4.43409C17.6906 4.27435 17.8203 4.1447 17.98 4.1447C18.1397 4.1447 18.2694 4.27435 18.2694 4.43409V15.4478C18.2694 16.246 17.6206 16.8948 16.8224 16.8948Z" fill="#454545"/>
<path d="M17.98 4.72344H13.9447C13.7849 4.72344 13.6553 4.59379 13.6553 4.43404V0.398158C13.6553 0.238413 13.7849 0.108765 13.9447 0.108765C14.1044 0.108765 14.2341 0.238413 14.2341 0.398158V4.14465H17.98C18.1397 4.14465 18.2694 4.2743 18.2694 4.43404C18.2694 4.59379 18.1403 4.72344 17.98 4.72344Z" fill="#454545"/>
<path d="M17.9801 4.7235C17.9048 4.7235 17.8296 4.69398 17.7728 4.6361L13.7375 0.491404C13.6264 0.376804 13.6287 0.193908 13.7433 0.0822015C13.8574 -0.0283469 14.042 -0.0260317 14.1525 0.0879894L18.1878 4.23269C18.299 4.34729 18.2967 4.53018 18.1821 4.64189C18.1259 4.6963 18.053 4.7235 17.9801 4.7235Z" fill="#454545"/>
</svg>
